<?xml version="1.0" encoding="UTF-8" standalone="no"?><svg xmlns="http://www.w3.org/2000/svg" xmlns:xlink="http://www.w3.org/1999/xlink" contentStyleType="text/css" height="115px" preserveAspectRatio="none" style="width:670px;height:115px;background:#FFFFFF;" version="1.1" viewBox="0 0 670 115" width="670px" zoomAndPan="magnify"><defs/><g><line style="stroke:#333333;stroke-width:0.5;" x1="10" x2="10" y1="10" y2="85.6001"/><line style="stroke:#333333;stroke-width:0.5;" x1="654" x2="654" y1="10" y2="85.6001"/><rect fill="#90EE90" height="75.6001" style="stroke:none;stroke-width:1.0;" width="100" x="149" y="10"/><rect fill="#ADD8E6" height="75.6001" style="stroke:none;stroke-width:1.0;" width="50" x="249" y="10"/><line style="stroke:#333333;stroke-width:0.5;stroke-dasharray:3.0,5.0;" x1="49" x2="49" y1="10" y2="85.6001"/><line style="stroke:#333333;stroke-width:0.5;stroke-dasharray:3.0,5.0;" x1="149" x2="149" y1="10" y2="85.6001"/><line style="stroke:#333333;stroke-width:0.5;stroke-dasharray:3.0,5.0;" x1="249" x2="249" y1="10" y2="85.6001"/><line style="stroke:#333333;stroke-width:0.5;stroke-dasharray:3.0,5.0;" x1="349" x2="349" y1="10" y2="85.6001"/><line style="stroke:#333333;stroke-width:0.5;stroke-dasharray:3.0,5.0;" x1="449" x2="449" y1="10" y2="85.6001"/><line style="stroke:#333333;stroke-width:0.5;stroke-dasharray:3.0,5.0;" x1="549" x2="549" y1="10" y2="85.6001"/><line style="stroke:#333333;stroke-width:0.5;stroke-dasharray:3.0,5.0;" x1="649" x2="649" y1="10" y2="85.6001"/><line style="stroke:#333333;stroke-width:0.5;" x1="10" x2="654" y1="10" y2="10"/><text fill="#333333" font-family="sans-serif" font-size="14" font-weight="bold" lengthAdjust="spacing" textLength="34" x="15" y="23.0059">PWM</text><line style="stroke:#333333;stroke-width:0.5;" x1="10" x2="50" y1="27.7999" y2="27.7999"/><line style="stroke:#333333;stroke-width:0.5;" x1="50" x2="60" y1="27.7999" y2="10"/><line style="stroke:#006400;stroke-width:1.5;" x1="49" x2="49" y1="63.6001" y2="77.6001"/><line style="stroke:#006400;stroke-width:1.5;" x1="49" x2="99" y1="63.6001" y2="63.6001"/><line style="stroke:#006400;stroke-width:1.5;" x1="99" x2="99" y1="63.6001" y2="77.6001"/><line style="stroke:#006400;stroke-width:1.5;" x1="99" x2="149" y1="77.6001" y2="77.6001"/><line style="stroke:#006400;stroke-width:1.5;" x1="149" x2="149" y1="63.6001" y2="77.6001"/><line style="stroke:#006400;stroke-width:1.5;" x1="149" x2="199" y1="63.6001" y2="63.6001"/><line style="stroke:#006400;stroke-width:1.5;" x1="199" x2="199" y1="63.6001" y2="77.6001"/><line style="stroke:#006400;stroke-width:1.5;" x1="199" x2="249" y1="77.6001" y2="77.6001"/><line style="stroke:#006400;stroke-width:1.5;" x1="249" x2="249" y1="63.6001" y2="77.6001"/><line style="stroke:#006400;stroke-width:1.5;" x1="249" x2="299" y1="63.6001" y2="63.6001"/><line style="stroke:#006400;stroke-width:1.5;" x1="299" x2="299" y1="63.6001" y2="77.6001"/><line style="stroke:#006400;stroke-width:1.5;" x1="299" x2="349" y1="77.6001" y2="77.6001"/><line style="stroke:#006400;stroke-width:1.5;" x1="349" x2="349" y1="63.6001" y2="77.6001"/><line style="stroke:#006400;stroke-width:1.5;" x1="349" x2="399" y1="63.6001" y2="63.6001"/><line style="stroke:#006400;stroke-width:1.5;" x1="399" x2="399" y1="63.6001" y2="77.6001"/><line style="stroke:#006400;stroke-width:1.5;" x1="399" x2="449" y1="77.6001" y2="77.6001"/><line style="stroke:#006400;stroke-width:1.5;" x1="449" x2="449" y1="63.6001" y2="77.6001"/><line style="stroke:#006400;stroke-width:1.5;" x1="449" x2="499" y1="63.6001" y2="63.6001"/><line style="stroke:#006400;stroke-width:1.5;" x1="499" x2="499" y1="63.6001" y2="77.6001"/><line style="stroke:#006400;stroke-width:1.5;" x1="499" x2="549" y1="77.6001" y2="77.6001"/><line style="stroke:#006400;stroke-width:1.5;" x1="549" x2="549" y1="63.6001" y2="77.6001"/><line style="stroke:#006400;stroke-width:1.5;" x1="549" x2="599" y1="63.6001" y2="63.6001"/><line style="stroke:#006400;stroke-width:1.5;" x1="599" x2="599" y1="63.6001" y2="77.6001"/><line style="stroke:#006400;stroke-width:1.5;" x1="599" x2="649" y1="77.6001" y2="77.6001"/><line style="stroke:#006400;stroke-width:1.5;" x1="649" x2="649" y1="63.6001" y2="77.6001"/><line style="stroke:#006400;stroke-width:1.5;" x1="649" x2="649" y1="63.6001" y2="63.6001"/><line style="stroke:#333333;stroke-width:2.0;" x1="49" x2="49" y1="85.6001" y2="90.6001"/><line style="stroke:#333333;stroke-width:2.0;" x1="149" x2="149" y1="85.6001" y2="90.6001"/><line style="stroke:#333333;stroke-width:2.0;" x1="249" x2="249" y1="85.6001" y2="90.6001"/><line style="stroke:#333333;stroke-width:2.0;" x1="349" x2="349" y1="85.6001" y2="90.6001"/><line style="stroke:#333333;stroke-width:2.0;" x1="449" x2="449" y1="85.6001" y2="90.6001"/><line style="stroke:#333333;stroke-width:2.0;" x1="549" x2="549" y1="85.6001" y2="90.6001"/><line style="stroke:#333333;stroke-width:2.0;" x1="649" x2="649" y1="85.6001" y2="90.6001"/><line style="stroke:#333333;stroke-width:2.0;" x1="49" x2="649" y1="85.6001" y2="85.6001"/><text fill="#333333" font-family="sans-serif" font-size="11" lengthAdjust="spacing" textLength="6" x="46" y="101.8191">0</text><text fill="#333333" font-family="sans-serif" font-size="11" lengthAdjust="spacing" textLength="18" x="140" y="101.8191">100</text><text fill="#333333" font-family="sans-serif" font-size="11" lengthAdjust="spacing" textLength="18" x="240" y="101.8191">200</text><text fill="#333333" font-family="sans-serif" font-size="11" lengthAdjust="spacing" textLength="18" x="340" y="101.8191">300</text><text fill="#333333" font-family="sans-serif" font-size="11" lengthAdjust="spacing" textLength="18" x="440" y="101.8191">400</text><text fill="#333333" font-family="sans-serif" font-size="11" lengthAdjust="spacing" textLength="18" x="540" y="101.8191">500</text><text fill="#333333" font-family="sans-serif" font-size="11" lengthAdjust="spacing" textLength="18" x="640" y="101.8191">600</text><line style="stroke:#333333;stroke-width:2.0;stroke-dasharray:4.0,4.0;" x1="149" x2="149" y1="10" y2="85.6001"/><line style="stroke:#333333;stroke-width:2.0;stroke-dasharray:4.0,4.0;" x1="249" x2="249" y1="10" y2="85.6001"/><text fill="#000000" font-family="sans-serif" font-size="12" lengthAdjust="spacing" textLength="36" x="152" y="23.1481">Period</text><line style="stroke:#333333;stroke-width:2.0;stroke-dasharray:4.0,4.0;" x1="249" x2="249" y1="10" y2="85.6001"/><line style="stroke:#333333;stroke-width:2.0;stroke-dasharray:4.0,4.0;" x1="299" x2="299" y1="10" y2="85.6001"/><text fill="#000000" font-family="sans-serif" font-size="12" lengthAdjust="spacing" textLength="25" x="252" y="23.1481">Duty</text><text fill="#000000" font-family="sans-serif" font-size="12" lengthAdjust="spacing" textLength="31" x="252" y="37.5482">Cycle</text><!--MD5=[fb1927626ae62485bd4797a4b6e970dd]
@startuml
clock   "PWM"   as C1 with period 100 pulse 50
scale 100 as 100 pixels

@0

@500

highlight 100 to 200 #LightGreen : Period
highlight 200 to 250 #LightBlue : Duty\nCycle
@enduml

PlantUML version 1.2022.4(Sat Apr 09 15:29:17 CEST 2022)
(GPL source distribution)
Java Runtime: OpenJDK Runtime Environment
JVM: OpenJDK 64-Bit Server VM
Default Encoding: UTF-8
Language: en
Country: US
--></g></svg>