<?xml version="1.0" encoding="UTF-8" standalone="no"?><svg xmlns="http://www.w3.org/2000/svg" xmlns:xlink="http://www.w3.org/1999/xlink" contentStyleType="text/css" height="115px" preserveAspectRatio="none" style="width:678px;height:115px;background:#FFFFFF;" version="1.1" viewBox="0 0 678 115" width="678px" zoomAndPan="magnify"><defs/><g><line style="stroke:#333333;stroke-width:0.5;" x1="10" x2="10" y1="10" y2="85.6001"/><line style="stroke:#333333;stroke-width:0.5;" x1="662" x2="662" y1="10" y2="85.6001"/><rect fill="#90EE90" height="75.6001" style="stroke:none;stroke-width:1.0;" width="100" x="157" y="10"/><rect fill="#ADD8E6" height="75.6001" style="stroke:none;stroke-width:1.0;" width="50" x="257" y="10"/><line style="stroke:#333333;stroke-width:0.5;stroke-dasharray:3.0,5.0;" x1="57" x2="57" y1="10" y2="85.6001"/><line style="stroke:#333333;stroke-width:0.5;stroke-dasharray:3.0,5.0;" x1="157" x2="157" y1="10" y2="85.6001"/><line style="stroke:#333333;stroke-width:0.5;stroke-dasharray:3.0,5.0;" x1="257" x2="257" y1="10" y2="85.6001"/><line style="stroke:#333333;stroke-width:0.5;stroke-dasharray:3.0,5.0;" x1="357" x2="357" y1="10" y2="85.6001"/><line style="stroke:#333333;stroke-width:0.5;stroke-dasharray:3.0,5.0;" x1="457" x2="457" y1="10" y2="85.6001"/><line style="stroke:#333333;stroke-width:0.5;stroke-dasharray:3.0,5.0;" x1="557" x2="557" y1="10" y2="85.6001"/><line style="stroke:#333333;stroke-width:0.5;stroke-dasharray:3.0,5.0;" x1="657" x2="657" y1="10" y2="85.6001"/><line style="stroke:#333333;stroke-width:0.5;" x1="10" x2="662" y1="10" y2="10"/><text fill="#333333" font-family="sans-serif" font-size="14" font-weight="bold" lengthAdjust="spacing" textLength="42" x="15" y="23.0059">PWM1</text><line style="stroke:#333333;stroke-width:0.5;" x1="10" x2="58" y1="27.7999" y2="27.7999"/><line style="stroke:#333333;stroke-width:0.5;" x1="58" x2="68" y1="27.7999" y2="10"/><line style="stroke:#006400;stroke-width:1.5;" x1="57" x2="57" y1="63.6001" y2="77.6001"/><line style="stroke:#006400;stroke-width:1.5;" x1="57" x2="107" y1="63.6001" y2="63.6001"/><line style="stroke:#006400;stroke-width:1.5;" x1="107" x2="107" y1="63.6001" y2="77.6001"/><line style="stroke:#006400;stroke-width:1.5;" x1="107" x2="157" y1="77.6001" y2="77.6001"/><line style="stroke:#006400;stroke-width:1.5;" x1="157" x2="157" y1="63.6001" y2="77.6001"/><line style="stroke:#006400;stroke-width:1.5;" x1="157" x2="207" y1="63.6001" y2="63.6001"/><line style="stroke:#006400;stroke-width:1.5;" x1="207" x2="207" y1="63.6001" y2="77.6001"/><line style="stroke:#006400;stroke-width:1.5;" x1="207" x2="257" y1="77.6001" y2="77.6001"/><line style="stroke:#006400;stroke-width:1.5;" x1="257" x2="257" y1="63.6001" y2="77.6001"/><line style="stroke:#006400;stroke-width:1.5;" x1="257" x2="307" y1="63.6001" y2="63.6001"/><line style="stroke:#006400;stroke-width:1.5;" x1="307" x2="307" y1="63.6001" y2="77.6001"/><line style="stroke:#006400;stroke-width:1.5;" x1="307" x2="357" y1="77.6001" y2="77.6001"/><line style="stroke:#006400;stroke-width:1.5;" x1="357" x2="357" y1="63.6001" y2="77.6001"/><line style="stroke:#006400;stroke-width:1.5;" x1="357" x2="407" y1="63.6001" y2="63.6001"/><line style="stroke:#006400;stroke-width:1.5;" x1="407" x2="407" y1="63.6001" y2="77.6001"/><line style="stroke:#006400;stroke-width:1.5;" x1="407" x2="457" y1="77.6001" y2="77.6001"/><line style="stroke:#006400;stroke-width:1.5;" x1="457" x2="457" y1="63.6001" y2="77.6001"/><line style="stroke:#006400;stroke-width:1.5;" x1="457" x2="507" y1="63.6001" y2="63.6001"/><line style="stroke:#006400;stroke-width:1.5;" x1="507" x2="507" y1="63.6001" y2="77.6001"/><line style="stroke:#006400;stroke-width:1.5;" x1="507" x2="557" y1="77.6001" y2="77.6001"/><line style="stroke:#006400;stroke-width:1.5;" x1="557" x2="557" y1="63.6001" y2="77.6001"/><line style="stroke:#006400;stroke-width:1.5;" x1="557" x2="607" y1="63.6001" y2="63.6001"/><line style="stroke:#006400;stroke-width:1.5;" x1="607" x2="607" y1="63.6001" y2="77.6001"/><line style="stroke:#006400;stroke-width:1.5;" x1="607" x2="657" y1="77.6001" y2="77.6001"/><line style="stroke:#006400;stroke-width:1.5;" x1="657" x2="657" y1="63.6001" y2="77.6001"/><line style="stroke:#006400;stroke-width:1.5;" x1="657" x2="657" y1="63.6001" y2="63.6001"/><line style="stroke:#333333;stroke-width:2.0;" x1="57" x2="57" y1="85.6001" y2="90.6001"/><line style="stroke:#333333;stroke-width:2.0;" x1="157" x2="157" y1="85.6001" y2="90.6001"/><line style="stroke:#333333;stroke-width:2.0;" x1="257" x2="257" y1="85.6001" y2="90.6001"/><line style="stroke:#333333;stroke-width:2.0;" x1="357" x2="357" y1="85.6001" y2="90.6001"/><line style="stroke:#333333;stroke-width:2.0;" x1="457" x2="457" y1="85.6001" y2="90.6001"/><line style="stroke:#333333;stroke-width:2.0;" x1="557" x2="557" y1="85.6001" y2="90.6001"/><line style="stroke:#333333;stroke-width:2.0;" x1="657" x2="657" y1="85.6001" y2="90.6001"/><line style="stroke:#333333;stroke-width:2.0;" x1="57" x2="657" y1="85.6001" y2="85.6001"/><text fill="#333333" font-family="sans-serif" font-size="11" lengthAdjust="spacing" textLength="6" x="54" y="101.8191">0</text><text fill="#333333" font-family="sans-serif" font-size="11" lengthAdjust="spacing" textLength="18" x="148" y="101.8191">100</text><text fill="#333333" font-family="sans-serif" font-size="11" lengthAdjust="spacing" textLength="18" x="248" y="101.8191">200</text><text fill="#333333" font-family="sans-serif" font-size="11" lengthAdjust="spacing" textLength="18" x="348" y="101.8191">300</text><text fill="#333333" font-family="sans-serif" font-size="11" lengthAdjust="spacing" textLength="18" x="448" y="101.8191">400</text><text fill="#333333" font-family="sans-serif" font-size="11" lengthAdjust="spacing" textLength="18" x="548" y="101.8191">500</text><text fill="#333333" font-family="sans-serif" font-size="11" lengthAdjust="spacing" textLength="18" x="648" y="101.8191">600</text><line style="stroke:#333333;stroke-width:2.0;stroke-dasharray:4.0,4.0;" x1="157" x2="157" y1="10" y2="85.6001"/><line style="stroke:#333333;stroke-width:2.0;stroke-dasharray:4.0,4.0;" x1="257" x2="257" y1="10" y2="85.6001"/><text fill="#000000" font-family="sans-serif" font-size="12" lengthAdjust="spacing" textLength="36" x="160" y="23.1481">Period</text><line style="stroke:#333333;stroke-width:2.0;stroke-dasharray:4.0,4.0;" x1="257" x2="257" y1="10" y2="85.6001"/><line style="stroke:#333333;stroke-width:2.0;stroke-dasharray:4.0,4.0;" x1="307" x2="307" y1="10" y2="85.6001"/><text fill="#000000" font-family="sans-serif" font-size="12" lengthAdjust="spacing" textLength="25" x="260" y="23.1481">Duty</text><text fill="#000000" font-family="sans-serif" font-size="12" lengthAdjust="spacing" textLength="31" x="260" y="37.5482">Cycle</text><!--MD5=[f5b0903f4ecb465327aeefe160caf965]
@startuml
clock   "PWM1"   as C1 with period 100 pulse 50
scale 100 as 100 pixels

@0

@500

highlight 100 to 200 #LightGreen : Period
highlight 200 to 250 #LightBlue : Duty\nCycle
@enduml

PlantUML version 1.2022.4(Sat Apr 09 15:29:17 CEST 2022)
(GPL source distribution)
Java Runtime: OpenJDK Runtime Environment
JVM: OpenJDK 64-Bit Server VM
Default Encoding: UTF-8
Language: en
Country: US
--></g></svg>