<?xml version="1.0" encoding="UTF-8" standalone="no"?><svg xmlns="http://www.w3.org/2000/svg" xmlns:xlink="http://www.w3.org/1999/xlink" contentStyleType="text/css" height="100px" preserveAspectRatio="none" style="width:678px;height:100px;background:#FFFFFF;" version="1.1" viewBox="0 0 678 100" width="678px" zoomAndPan="magnify"><defs/><g><line style="stroke:#333333;stroke-width:0.5;" x1="10" x2="10" y1="10" y2="71.2"/><line style="stroke:#333333;stroke-width:0.5;" x1="662" x2="662" y1="10" y2="71.2"/><rect fill="#90EE90" height="61.2" style="stroke:none;stroke-width:1.0;" width="100" x="157" y="10"/><rect fill="#ADD8E6" height="61.2" style="stroke:none;stroke-width:1.0;" width="50" x="257" y="10"/><line style="stroke:#333333;stroke-width:0.5;stroke-dasharray:3.0,5.0;" x1="57" x2="57" y1="10" y2="71.2"/><line style="stroke:#333333;stroke-width:0.5;stroke-dasharray:3.0,5.0;" x1="157" x2="157" y1="10" y2="71.2"/><line style="stroke:#333333;stroke-width:0.5;stroke-dasharray:3.0,5.0;" x1="257" x2="257" y1="10" y2="71.2"/><line style="stroke:#333333;stroke-width:0.5;stroke-dasharray:3.0,5.0;" x1="357" x2="357" y1="10" y2="71.2"/><line style="stroke:#333333;stroke-width:0.5;stroke-dasharray:3.0,5.0;" x1="457" x2="457" y1="10" y2="71.2"/><line style="stroke:#333333;stroke-width:0.5;stroke-dasharray:3.0,5.0;" x1="557" x2="557" y1="10" y2="71.2"/><line style="stroke:#333333;stroke-width:0.5;stroke-dasharray:3.0,5.0;" x1="657" x2="657" y1="10" y2="71.2"/><line style="stroke:#333333;stroke-width:0.5;" x1="10" x2="662" y1="10" y2="10"/><text fill="#333333" font-family="sans-serif" font-size="14" font-weight="bold" lengthAdjust="spacing" textLength="42" x="15" y="23.0059">PWM1</text><line style="stroke:#333333;stroke-width:0.5;" x1="10" x2="58" y1="27.7999" y2="27.7999"/><line style="stroke:#333333;stroke-width:0.5;" x1="58" x2="68" y1="27.7999" y2="10"/><line style="stroke:#006400;stroke-width:1.5;" x1="57" x2="57" y1="49.2" y2="63.2"/><line style="stroke:#006400;stroke-width:1.5;" x1="57" x2="107" y1="49.2" y2="49.2"/><line style="stroke:#006400;stroke-width:1.5;" x1="107" x2="107" y1="49.2" y2="63.2"/><line style="stroke:#006400;stroke-width:1.5;" x1="107" x2="157" y1="63.2" y2="63.2"/><line style="stroke:#006400;stroke-width:1.5;" x1="157" x2="157" y1="49.2" y2="63.2"/><line style="stroke:#006400;stroke-width:1.5;" x1="157" x2="207" y1="49.2" y2="49.2"/><line style="stroke:#006400;stroke-width:1.5;" x1="207" x2="207" y1="49.2" y2="63.2"/><line style="stroke:#006400;stroke-width:1.5;" x1="207" x2="257" y1="63.2" y2="63.2"/><line style="stroke:#006400;stroke-width:1.5;" x1="257" x2="257" y1="49.2" y2="63.2"/><line style="stroke:#006400;stroke-width:1.5;" x1="257" x2="307" y1="49.2" y2="49.2"/><line style="stroke:#006400;stroke-width:1.5;" x1="307" x2="307" y1="49.2" y2="63.2"/><line style="stroke:#006400;stroke-width:1.5;" x1="307" x2="357" y1="63.2" y2="63.2"/><line style="stroke:#006400;stroke-width:1.5;" x1="357" x2="357" y1="49.2" y2="63.2"/><line style="stroke:#006400;stroke-width:1.5;" x1="357" x2="407" y1="49.2" y2="49.2"/><line style="stroke:#006400;stroke-width:1.5;" x1="407" x2="407" y1="49.2" y2="63.2"/><line style="stroke:#006400;stroke-width:1.5;" x1="407" x2="457" y1="63.2" y2="63.2"/><line style="stroke:#006400;stroke-width:1.5;" x1="457" x2="457" y1="49.2" y2="63.2"/><line style="stroke:#006400;stroke-width:1.5;" x1="457" x2="507" y1="49.2" y2="49.2"/><line style="stroke:#006400;stroke-width:1.5;" x1="507" x2="507" y1="49.2" y2="63.2"/><line style="stroke:#006400;stroke-width:1.5;" x1="507" x2="557" y1="63.2" y2="63.2"/><line style="stroke:#006400;stroke-width:1.5;" x1="557" x2="557" y1="49.2" y2="63.2"/><line style="stroke:#006400;stroke-width:1.5;" x1="557" x2="607" y1="49.2" y2="49.2"/><line style="stroke:#006400;stroke-width:1.5;" x1="607" x2="607" y1="49.2" y2="63.2"/><line style="stroke:#006400;stroke-width:1.5;" x1="607" x2="657" y1="63.2" y2="63.2"/><line style="stroke:#006400;stroke-width:1.5;" x1="657" x2="657" y1="49.2" y2="63.2"/><line style="stroke:#006400;stroke-width:1.5;" x1="657" x2="657" y1="49.2" y2="49.2"/><line style="stroke:#333333;stroke-width:2.0;" x1="57" x2="57" y1="71.2" y2="76.2"/><line style="stroke:#333333;stroke-width:2.0;" x1="157" x2="157" y1="71.2" y2="76.2"/><line style="stroke:#333333;stroke-width:2.0;" x1="257" x2="257" y1="71.2" y2="76.2"/><line style="stroke:#333333;stroke-width:2.0;" x1="357" x2="357" y1="71.2" y2="76.2"/><line style="stroke:#333333;stroke-width:2.0;" x1="457" x2="457" y1="71.2" y2="76.2"/><line style="stroke:#333333;stroke-width:2.0;" x1="557" x2="557" y1="71.2" y2="76.2"/><line style="stroke:#333333;stroke-width:2.0;" x1="657" x2="657" y1="71.2" y2="76.2"/><line style="stroke:#333333;stroke-width:2.0;" x1="57" x2="657" y1="71.2" y2="71.2"/><text fill="#333333" font-family="sans-serif" font-size="11" lengthAdjust="spacing" textLength="6" x="54" y="87.419">0</text><text fill="#333333" font-family="sans-serif" font-size="11" lengthAdjust="spacing" textLength="18" x="148" y="87.419">100</text><text fill="#333333" font-family="sans-serif" font-size="11" lengthAdjust="spacing" textLength="18" x="248" y="87.419">200</text><text fill="#333333" font-family="sans-serif" font-size="11" lengthAdjust="spacing" textLength="18" x="348" y="87.419">300</text><text fill="#333333" font-family="sans-serif" font-size="11" lengthAdjust="spacing" textLength="18" x="448" y="87.419">400</text><text fill="#333333" font-family="sans-serif" font-size="11" lengthAdjust="spacing" textLength="18" x="548" y="87.419">500</text><text fill="#333333" font-family="sans-serif" font-size="11" lengthAdjust="spacing" textLength="18" x="648" y="87.419">600</text><line style="stroke:#333333;stroke-width:2.0;stroke-dasharray:4.0,4.0;" x1="157" x2="157" y1="10" y2="71.2"/><line style="stroke:#333333;stroke-width:2.0;stroke-dasharray:4.0,4.0;" x1="257" x2="257" y1="10" y2="71.2"/><text fill="#000000" font-family="sans-serif" font-size="12" lengthAdjust="spacing" textLength="36" x="160" y="23.1481">Period</text><line style="stroke:#333333;stroke-width:2.0;stroke-dasharray:4.0,4.0;" x1="257" x2="257" y1="10" y2="71.2"/><line style="stroke:#333333;stroke-width:2.0;stroke-dasharray:4.0,4.0;" x1="307" x2="307" y1="10" y2="71.2"/><text fill="#000000" font-family="sans-serif" font-size="12" lengthAdjust="spacing" textLength="56" x="260" y="23.1481">DutyCycle</text><!--MD5=[89a121a8a574333cd82b3e16b40bf595]
@startuml
clock   "PWM1"   as C1 with period 100 pulse 50
scale 100 as 100 pixels

@0

@500

highlight 100 to 200 #LightGreen : Period
highlight 200 to 250 #LightBlue : DutyCycle
@enduml

PlantUML version 1.2022.4(Sat Apr 09 15:29:17 CEST 2022)
(GPL source distribution)
Java Runtime: OpenJDK Runtime Environment
JVM: OpenJDK 64-Bit Server VM
Default Encoding: UTF-8
Language: en
Country: US
--></g></svg>